<?xml version="1.0" encoding="utf-8"?>
<!DOCTYPE svg PUBLIC "-//W3C//DTD SVG 1.1//EN" "http://www.w3.org/Graphics/SVG/1.1/DTD/svg11.dtd">
<svg version="1.1"
    id="Layer_1"
    xmlns="http://www.w3.org/2000/svg"
    xmlns:xlink="http://www.w3.org/1999/xlink"
    enable-background="new 0 0 80 80"
    xml:space="preserve"
    width="200"
    height="200"
    viewBox="0 -2000 2000 2000">

    <circle r="900" cy="-1000" cx="1000" fill="#ffffff"></circle>

    <path fill="#e41280"
          transform="scale(1,-1)"
          d="M785 1924 c-267 -59 -496 -236 -622 -479 -143 -277 -133 -632 25
            -900 64 -108 220 -264 327 -327 255 -150 593 -167 860 -44 259 120 463 374
            519 648 31 152 17 368 -33 512 -59 168 -201 349 -356 456 -64 44 -197 104
            -275 125 -93 25 -351 30 -445 9z m661 -141 c49 -33 54 -39 39 -48 -50 -29
            -179 -130 -249 -195 -284 -264 -444 -531 -518 -868 -18 -81 -22 -131 -22 -299
            -1 -233 10 -216 -106 -157 -95 48 -147 85 -221 160 l-67 66 30 110 c122 459
            423 880 802 1126 57 37 243 141 254 142 1 0 28 -17 58 -37z m-728 -120 c71
            -52 91 -136 52 -212 -67 -132 -267 -104 -300 43 -15 66 18 136 84 178 40 25
            125 20 164 -9z m726 -177 c47 -20 76 -65 76 -118 0 -143 -179 -186 -245 -58
            -32 62 -3 138 65 172 42 22 60 22 104 4z m371 -120 l24 -55 -97 -98 c-242
            -244 -372 -543 -389 -897 l-6 -118 -42 -19 c-50 -22 -153 -47 -214 -51 l-45
            -3 3 60 c1 33 8 104 16 157 65 442 273 773 645 1026 41 28 76 51 78 51 2 1 14
            -23 27 -53z"/>
</svg>