<svg height="512pt"
     viewBox="0 -56 512 512"
     width="512pt"
     xmlns="http://www.w3.org/2000/svg"
     xmlns:xlink="http://www.w3.org/1999/xlink">

    <text><a xlink:href="https://google.com" target="_top">google</a></text>

    <path d="m10 300v70c0 11.050781 8.949219 20 20 20h452c11.050781 0 20-8.949219 20-20v-70zm0 0" fill="#ff641a"/>
    <path d="m10 150h146.050781v150h-146.050781zm0 0" fill="#f2f2f2"/>
    <path d="m355.949219 150h146.050781v150h-146.050781zm0 0" fill="#f2f2f2"/>
    <path d="m482 70h-126l-40-60h-120l-40 60c-26.394531 0-100.691406 0-126 0-11.050781 0-20 8.949219-20 20v60h492v-60c0-11.050781-8.949219-20-20-20zm0 0"
          fill="#ff641a"/>
    <path d="m131 225c0-69.074219 56.21875-125 125-125 68.816406 0 125 55.960938 125 125 0 69.09375-56.222656 125-125 125-68.824219 0-125-55.957031-125-125zm0 0"
          fill="#61729b"/>
    <path d="m340.988281 225c0 46.9375-38.050781 84.988281-84.988281 84.988281s-84.988281-38.050781-84.988281-84.988281 38.050781-84.988281 84.988281-84.988281 84.988281 38.050781 84.988281 84.988281zm0 0"
          fill="#76e2f8"/>
    <path d="m40 30h60v40h-60zm0 0" fill="#61729b"/>
    <g fill="#020202">
        <path d="m30 400h452c16.542969 0 30-13.457031 30-30v-280c0-16.542969-13.457031-30-30-30h-120.648438l-37.03125-55.546875c-1.855468-2.78125-4.976562-4.453125-8.320312-4.453125h-120c-3.34375 0-6.464844 1.671875-8.320312 4.453125l-37.03125 55.546875h-40.648438v-30c0-5.523438-4.476562-10-10-10h-60c-5.523438 0-10 4.476562-10 10v30c-16.542969 0-30 13.457031-30 30v280c0 16.542969 13.457031 30 30 30zm462-110h-117.710938c10.964844-19.824219 16.710938-41.964844 16.710938-65s-5.746094-45.175781-16.710938-65h117.710938zm-121-65c0 62.554688-50.570312 115-115 115-36.4375 0-69.957031-16.769531-91.957031-46.007812-15.074219-20.054688-23.042969-43.910157-23.042969-68.992188 0-61.628906 49.6875-115 115-115 65.382812 0 115 53.433594 115 115zm-233.289062 65h-117.710938v-130.011719h117.710938c-10.964844 19.828125-16.710938 41.976563-16.710938 65.011719 0 23.03125 5.746094 45.175781 16.710938 65zm344.289062 90h-452c-5.515625 0-10-4.484375-10-10v-60h131.195312c25.160157 30.925781 63.042969 50 104.804688 50 41.875 0 79.71875-19.167969 104.804688-50h131.195312v60c0 5.515625-4.484375 10-10 10zm-432-340h40v20h-40zm-20 40h126c3.34375 0 6.464844-1.671875 8.320312-4.453125l37.03125-55.546875h109.296876l37.03125 55.546875c1.855468 2.78125 4.976562 4.453125 8.320312 4.453125h126c5.515625 0 10 4.484375 10 10v50h-131.199219c-25.199219-30.984375-63.121093-50-104.800781-50-41.566406 0-79.527344 18.929688-104.800781 50h-131.199219v-50c0-5.515625 4.484375-10 10-10zm0 0"/>
        <path d="m442 120h20c5.523438 0 10-4.476562 10-10s-4.476562-10-10-10h-20c-5.523438 0-10 4.476562-10 10s4.476562 10 10 10zm0 0"/>
        <path d="m256 130.011719c-52.378906 0-94.988281 42.609375-94.988281 94.988281s42.609375 94.988281 94.988281 94.988281 94.988281-42.609375 94.988281-94.988281-42.609375-94.988281-94.988281-94.988281zm0 169.976562c-41.351562 0-74.988281-33.640625-74.988281-74.988281s33.640625-74.988281 74.988281-74.988281 74.988281 33.640625 74.988281 74.988281-33.636719 74.988281-74.988281 74.988281zm0 0"/>
        <path d="m266 180c0 5.523438-4.476562 10-10 10s-10-4.476562-10-10 4.476562-10 10-10 10 4.476562 10 10zm0 0"/>
        <path d="m289.9375 193.863281c-4.777344 2.769531-6.40625 8.886719-3.636719 13.664063 3.066407 5.292968 4.6875 11.332031 4.6875 17.472656 0 19.292969-15.695312 34.988281-34.988281 34.988281-5.523438 0-10 4.480469-10 10 0 5.523438 4.476562 10 10 10 30.320312 0 54.988281-24.667969 54.988281-54.988281 0-9.65625-2.550781-19.167969-7.382812-27.503906-2.769531-4.777344-8.886719-6.402344-13.667969-3.632813zm0 0"/>
    </g>
</svg>