
<svg width="60" height="16" viewBox="0 0 60 16" fill="none" xmlns="http://www.w3.org/2000/svg">
    <path d="M29.0189 10.8169V16H16.7822V15.6394C17.909 15.5493 18.4949 14.9408 18.4949 13.8366V2.16338C18.4949 1.08169 17.909 0.47324 16.7822 0.360564V0H22.9569V0.360564C21.8076 0.47324 21.2442 1.08169 21.2442 2.16338V13.8366C21.2442 14.3775 21.3794 14.7831 21.6724 15.0535C21.9428 15.3239 22.4611 15.4592 23.1822 15.4592H24.4217C24.94 15.4592 25.3907 15.369 25.7512 15.1662C26.1118 14.9859 26.5174 14.5577 26.9681 13.9042C27.4189 13.2507 27.9822 12.2141 28.6808 10.8169H29.0189Z" fill="#111827"/>
    <path d="M32.6771 13.8366V2.16338C32.6771 1.08169 32.0912 0.47324 30.9645 0.360564V0H38.8292C40.2715 0 41.3532 0.338028 42.1194 0.99155C42.8631 1.64507 43.2462 2.52394 43.2462 3.60563C43.2462 4.55211 42.9532 5.38592 42.3898 6.06197C41.8039 6.73803 40.9926 7.18873 39.956 7.39155C41.2631 7.52676 42.2771 7.97747 43.0208 8.7662C43.7419 9.55493 44.125 10.5014 44.125 11.6282C44.125 12.9352 43.7194 13.9944 42.9532 14.8056C42.187 15.6169 41.0152 16 39.4377 16H30.9645V15.6394C32.0912 15.5493 32.6771 14.9408 32.6771 13.8366ZM35.8771 15.0761C36.1701 15.3465 36.6433 15.4592 37.2969 15.4592H38.5138C39.4152 15.4592 40.0912 15.1662 40.5419 14.5803C40.9926 13.9944 41.218 13.0028 41.218 11.6056C41.218 9.03662 40.2715 7.75211 38.4011 7.75211H35.4264V13.8366C35.4264 14.4225 35.5616 14.8282 35.8771 15.0761ZM38.1983 7.21127C39.7307 7.21127 40.4969 6.10704 40.4969 3.87606C40.4969 2.68169 40.2715 1.82535 39.8433 1.30704C39.4152 0.811268 38.7842 0.540845 37.9729 0.540845H36.5307C36.08 0.540845 35.787 0.630986 35.6518 0.766197C35.494 0.923944 35.4264 1.19437 35.4264 1.57746V7.21127H38.1983Z" fill="#111827"/>
    <path d="M1.35211 14.4225C1.82535 13.7915 2.27606 12.8451 2.70423 11.538L6.44507 0H8.58592L12.9352 12.9577C13.2507 13.9042 13.5662 14.5803 13.9042 14.9859C14.2197 15.3915 14.6254 15.5944 15.0761 15.6394V16H8.85634V15.6394C9.46479 15.5944 9.89296 15.4817 10.1634 15.3239C10.4113 15.1662 10.5465 14.8958 10.5465 14.5352C10.5465 14.3099 10.4563 13.9718 10.3211 13.4761L9.05916 9.69014L6.44507 1.80282L3.89859 9.69014L3.15493 11.9887C2.97465 12.5296 2.88451 13.0028 2.88451 13.4085C2.88451 13.8817 3.01972 14.2873 3.33521 14.6479C3.65071 15.0085 4.16902 15.3239 4.91268 15.6394V16H0V15.6394C0.405634 15.4592 0.856339 15.0535 1.35211 14.4225Z" fill="#111827"/>
    <path d="M46.2315 14.4225C46.7048 13.7915 47.1555 12.8451 47.5837 11.538L51.3245 0H53.4653L57.8146 12.9577C58.1301 13.9042 58.4456 14.5803 58.7837 14.9859C59.0992 15.3915 59.5048 15.5944 59.9555 15.6394V16H53.7358V15.6394C54.3442 15.5944 54.7724 15.4817 55.0428 15.3239C55.2907 15.1662 55.4259 14.8958 55.4259 14.5352C55.4259 14.3099 55.3358 13.9718 55.2006 13.4761L53.9386 9.69014L51.3245 1.80282L48.778 9.69014L48.0344 11.9887C47.8541 12.5296 47.7639 13.0028 47.7639 13.4085C47.7639 13.8817 47.8991 14.2873 48.2146 14.6479C48.5301 15.0085 49.0484 15.3239 49.7921 15.6394V16H44.8794V15.6394C45.2851 15.4592 45.7358 15.0535 46.2315 14.4225Z" fill="#111827"/>
</svg>