<?xml version="1.0" encoding="iso-8859-1"?>
<svg version="1.1" id="Layer_1" xmlns="http://www.w3.org/2000/svg" xmlns:xlink="http://www.w3.org/1999/xlink" x="0px" y="0px" viewBox="0 0 40 40" style="enable-background:new 0 0 40 40;" xml:space="preserve">
<g>
	<path style="fill:#E1EBF2;" d="M30.5,12.5v-2c0-1.103,0.897-2,2-2s2,0.897,2,2v2H30.5z"></path>
	<g>
		<path style="fill:#788B9C;" d="M32.5,9c0.827,0,1.5,0.673,1.5,1.5V12h-3v-1.5C31,9.673,31.673,9,32.5,9 M32.5,8
			C31.119,8,30,9.119,30,10.5V13h5v-2.5C35,9.119,33.881,8,32.5,8L32.5,8z"></path>
	</g>
</g>
<g>
	<polygon style="fill:#E1EBF2;" points="27.5,36.5 27.5,20.151 29.268,17.5 35.732,17.5 37.5,20.151 37.5,36.5 	"></polygon>
	<g>
		<path style="fill:#788B9C;" d="M35.465,18L37,20.303V36h-9V20.303L29.535,18H35.465 M36,17h-7l-2,3v17h11V20L36,17L36,17z"></path>
	</g>
</g>
<g>
	<path style="fill:#E1EBF2;" d="M29.5,17.5v-3c0-1.654,1.346-3,3-3s3,1.346,3,3v3H29.5z"></path>
	<g>
		<path style="fill:#788B9C;" d="M32.5,12c1.379,0,2.5,1.121,2.5,2.5V17h-5v-2.5C30,13.121,31.121,12,32.5,12 M32.5,11
			c-1.933,0-3.5,1.567-3.5,3.5V18h7v-3.5C36,12.567,34.433,11,32.5,11L32.5,11z"></path>
	</g>
</g>
<g>
	<line style="fill:none;stroke:#788B9C;stroke-linecap:square;stroke-miterlimit:10;" x1="32.5" y1="8.5" x2="32.5" y2="5.5"></line>
</g>
<g>
	<polygon style="fill:#E1EBF2;" points="26.5,38.5 26.5,32.5 30.5,32.5 30.5,34.5 34.5,34.5 34.5,32.5 38.5,32.5 38.5,38.5 	"></polygon>
	<g>
		<path style="fill:#788B9C;" d="M38,33v5H27v-5h3v1v1h1h3h1v-1v-1H38 M39,32h-5v2h-3v-2h-5v7h13V32L39,32z"></path>
	</g>
</g>
<rect x="31" y="20" style="fill-rule:evenodd;clip-rule:evenodd;fill:#788B9C;" width="1" height="1"></rect>
<rect x="33" y="20" style="fill-rule:evenodd;clip-rule:evenodd;fill:#788B9C;" width="1" height="1"></rect>
<rect x="31" y="15" style="fill-rule:evenodd;clip-rule:evenodd;fill:#788B9C;" width="1" height="1"></rect>
<rect x="33" y="15" style="fill-rule:evenodd;clip-rule:evenodd;fill:#788B9C;" width="1" height="1"></rect>
<rect x="31" y="13" style="fill-rule:evenodd;clip-rule:evenodd;fill:#788B9C;" width="1" height="1"></rect>
<rect x="33" y="13" style="fill-rule:evenodd;clip-rule:evenodd;fill:#788B9C;" width="1" height="1"></rect>
<rect x="32" y="10" style="fill-rule:evenodd;clip-rule:evenodd;fill:#788B9C;" width="1" height="1"></rect>
<rect x="35" y="20" style="fill-rule:evenodd;clip-rule:evenodd;fill:#788B9C;" width="1" height="1"></rect>
<rect x="29" y="20" style="fill-rule:evenodd;clip-rule:evenodd;fill:#788B9C;" width="1" height="1"></rect>
<rect x="31" y="22" style="fill-rule:evenodd;clip-rule:evenodd;fill:#788B9C;" width="1" height="1"></rect>
<rect x="33" y="22" style="fill-rule:evenodd;clip-rule:evenodd;fill:#788B9C;" width="1" height="1"></rect>
<rect x="35" y="22" style="fill-rule:evenodd;clip-rule:evenodd;fill:#788B9C;" width="1" height="1"></rect>
<rect x="29" y="22" style="fill-rule:evenodd;clip-rule:evenodd;fill:#788B9C;" width="1" height="1"></rect>
<rect x="31" y="24" style="fill-rule:evenodd;clip-rule:evenodd;fill:#788B9C;" width="1" height="1"></rect>
<rect x="33" y="24" style="fill-rule:evenodd;clip-rule:evenodd;fill:#788B9C;" width="1" height="1"></rect>
<rect x="35" y="24" style="fill-rule:evenodd;clip-rule:evenodd;fill:#788B9C;" width="1" height="1"></rect>
<rect x="29" y="24" style="fill-rule:evenodd;clip-rule:evenodd;fill:#788B9C;" width="1" height="1"></rect>
<rect x="31" y="26" style="fill-rule:evenodd;clip-rule:evenodd;fill:#788B9C;" width="1" height="1"></rect>
<rect x="33" y="26" style="fill-rule:evenodd;clip-rule:evenodd;fill:#788B9C;" width="1" height="1"></rect>
<rect x="35" y="26" style="fill-rule:evenodd;clip-rule:evenodd;fill:#788B9C;" width="1" height="1"></rect>
<rect x="29" y="26" style="fill-rule:evenodd;clip-rule:evenodd;fill:#788B9C;" width="1" height="1"></rect>
<rect x="31" y="28" style="fill-rule:evenodd;clip-rule:evenodd;fill:#788B9C;" width="1" height="1"></rect>
<rect x="33" y="28" style="fill-rule:evenodd;clip-rule:evenodd;fill:#788B9C;" width="1" height="1"></rect>
<rect x="35" y="28" style="fill-rule:evenodd;clip-rule:evenodd;fill:#788B9C;" width="1" height="1"></rect>
<rect x="29" y="28" style="fill-rule:evenodd;clip-rule:evenodd;fill:#788B9C;" width="1" height="1"></rect>
<rect x="31" y="30" style="fill-rule:evenodd;clip-rule:evenodd;fill:#788B9C;" width="1" height="1"></rect>
<rect x="33" y="30" style="fill-rule:evenodd;clip-rule:evenodd;fill:#788B9C;" width="1" height="1"></rect>
<rect x="32" y="32" style="fill-rule:evenodd;clip-rule:evenodd;fill:#788B9C;" width="1" height="1"></rect>
<rect x="35" y="36" style="fill-rule:evenodd;clip-rule:evenodd;fill:#788B9C;" width="1" height="1"></rect>
<rect x="29" y="36" style="fill-rule:evenodd;clip-rule:evenodd;fill:#788B9C;" width="1" height="1"></rect>
<rect x="31" y="36" style="fill-rule:evenodd;clip-rule:evenodd;fill:#788B9C;" width="1" height="1"></rect>
<rect x="33" y="36" style="fill-rule:evenodd;clip-rule:evenodd;fill:#788B9C;" width="1" height="1"></rect>
<rect x="35" y="30" style="fill-rule:evenodd;clip-rule:evenodd;fill:#788B9C;" width="1" height="1"></rect>
<rect x="29" y="30" style="fill-rule:evenodd;clip-rule:evenodd;fill:#788B9C;" width="1" height="1"></rect>
    <line style="fill:#8BB7F0;stroke:#4E7AB5;stroke-linecap:square;stroke-miterlimit:10;" x1="20.5" y1="4.5" x2="20.5" y2="1.5"></line>
<g>
	<rect x="17.5" y="3.5" style="fill:#8BB7F0;" width="6" height="2"></rect>
	<path style="fill:#4E7AB5;" d="M23,4v1h-5V4H23 M24,3h-7v3h7V3L24,3z"></path>
</g>
<g>
	<polygon style="fill:#8BB7F0;" points="12.562,38.5 16.444,5.5 24.556,5.5 28.437,38.5 	"></polygon>
	<g>
		<path style="fill:#4E7AB5;" d="M24.111,6l3.765,32H13.125l3.765-32H24.111 M25,5h-9l-4,34h17L25,5L25,5z"></path>
	</g>
</g>
<g>
	<polygon style="fill:#C2E8FF;" points="19.458,38.5 16.546,5.5 24.454,5.5 21.542,38.5 	"></polygon>
	<g>
		<path style="fill:#4E7AB5;" d="M23.908,6l-2.824,32h-1.169L17.092,6H23.908 M25,5h-9l3,34h3L25,5L25,5z"></path>
	</g>
</g>
<g>
	<rect x="2.5" y="12.5" style="fill:#F5CE85;" width="10" height="18"></rect>
	<path style="fill:#967A44;" d="M12,13v17H3V13H12 M13,12H2v19h11V12L13,12z"></path>
</g>
<g>
	<rect x="1.5" y="30.5" style="fill:#F5CE85;" width="12" height="8"></rect>
	<path style="fill:#967A44;" d="M13,31v7H2v-7H13 M14,30H1v9h13V30L14,30z"></path>
</g>
<g>
	<rect x="4.5" y="8.5" style="fill:#F5CE85;" width="6" height="4"></rect>
	<path style="fill:#967A44;" d="M10,9v3H5V9H10 M11,8H4v5h7V8L11,8z"></path>
</g>
<g>
	<rect x="5.5" y="4.5" style="fill:#F5CE85;" width="4" height="4"></rect>
	<path style="fill:#967A44;" d="M9,5v3H6V5H9 M10,4H5v5h5V4L10,4z"></path>
</g>
<g>
	<line style="fill:none;stroke:#967A44;stroke-linecap:square;stroke-miterlimit:10;" x1="7.5" y1="4.5" x2="7.5" y2="1.5"></line>
</g>
<g>
	<rect x="6" y="14" style="fill:#967A44;" width="1" height="1"></rect>
</g>
<g>
	<rect x="8" y="14" style="fill:#967A44;" width="1" height="1"></rect>
</g>
<g>
	<rect x="6" y="10" style="fill:#967A44;" width="1" height="1"></rect>
</g>
<g>
	<rect x="8" y="10" style="fill:#967A44;" width="1" height="1"></rect>
</g>
<g>
	<rect x="7" y="6" style="fill:#967A44;" width="1" height="1"></rect>
</g>
<g>
	<rect x="10" y="14" style="fill:#967A44;" width="1" height="1"></rect>
</g>
<g>
	<rect x="4" y="14" style="fill:#967A44;" width="1" height="1"></rect>
</g>
<g>
	<rect x="6" y="16" style="fill:#967A44;" width="1" height="1"></rect>
</g>
<g>
	<rect x="8" y="16" style="fill:#967A44;" width="1" height="1"></rect>
</g>
<g>
	<rect x="10" y="16" style="fill:#967A44;" width="1" height="1"></rect>
</g>
<g>
	<rect x="4" y="16" style="fill:#967A44;" width="1" height="1"></rect>
</g>
<g>
	<rect x="6" y="18" style="fill:#967A44;" width="1" height="1"></rect>
</g>
<g>
	<rect x="8" y="18" style="fill:#967A44;" width="1" height="1"></rect>
</g>
<g>
	<rect x="10" y="18" style="fill:#967A44;" width="1" height="1"></rect>
</g>
<g>
	<rect x="4" y="18" style="fill:#967A44;" width="1" height="1"></rect>
</g>
<g>
	<rect x="6" y="20" style="fill:#967A44;" width="1" height="1"></rect>
</g>
<g>
	<rect x="8" y="20" style="fill:#967A44;" width="1" height="1"></rect>
</g>
<g>
	<rect x="10" y="20" style="fill:#967A44;" width="1" height="1"></rect>
</g>
<g>
	<rect x="4" y="20" style="fill:#967A44;" width="1" height="1"></rect>
</g>
<g>
	<rect x="6" y="22" style="fill:#967A44;" width="1" height="1"></rect>
</g>
<g>
	<rect x="8" y="22" style="fill:#967A44;" width="1" height="1"></rect>
</g>
<g>
	<rect x="10" y="22" style="fill:#967A44;" width="1" height="1"></rect>
</g>
<g>
	<rect x="4" y="22" style="fill:#967A44;" width="1" height="1"></rect>
</g>
<g>
	<rect x="6" y="24" style="fill:#967A44;" width="1" height="1"></rect>
</g>
<g>
	<rect x="8" y="24" style="fill:#967A44;" width="1" height="1"></rect>
</g>
<g>
	<rect x="10" y="24" style="fill:#967A44;" width="1" height="1"></rect>
</g>
<g>
	<rect x="4" y="24" style="fill:#967A44;" width="1" height="1"></rect>
</g>
<g>
	<rect x="6" y="26" style="fill:#967A44;" width="1" height="1"></rect>
</g>
<g>
	<rect x="8" y="26" style="fill:#967A44;" width="1" height="1"></rect>
</g>
<g>
	<rect x="10" y="26" style="fill:#967A44;" width="1" height="1"></rect>
</g>
<g>
	<rect x="4" y="26" style="fill:#967A44;" width="1" height="1"></rect>
</g>
<g>
	<rect x="6" y="28" style="fill:#967A44;" width="1" height="1"></rect>
</g>
<g>
	<rect x="8" y="28" style="fill:#967A44;" width="1" height="1"></rect>
</g>
<g>
	<rect x="10" y="28" style="fill:#967A44;" width="1" height="1"></rect>
</g>
<g>
	<rect x="4" y="28" style="fill:#967A44;" width="1" height="1"></rect>
</g>
<g>
	<rect x="6" y="32" style="fill:#967A44;" width="1" height="1"></rect>
</g>
<g>
	<rect x="8" y="32" style="fill:#967A44;" width="1" height="1"></rect>
</g>
<g>
	<rect x="10" y="32" style="fill:#967A44;" width="2" height="1"></rect>
</g>
<g>
	<rect x="3" y="32" style="fill:#967A44;" width="2" height="1"></rect>
</g>
<g>
	<rect x="6" y="34" style="fill:#967A44;" width="1" height="1"></rect>
</g>
<g>
	<rect x="8" y="34" style="fill:#967A44;" width="1" height="1"></rect>
</g>
<g>
	<rect x="10" y="34" style="fill:#967A44;" width="2" height="1"></rect>
</g>
<g>
	<rect x="3" y="34" style="fill:#967A44;" width="2" height="1"></rect>
</g>
<g>
	<rect x="6" y="36" style="fill:#967A44;" width="1" height="1"></rect>
</g>
<g>
	<rect x="8" y="36" style="fill:#967A44;" width="1" height="1"></rect>
</g>
<g>
	<rect x="10" y="36" style="fill:#967A44;" width="2" height="1"></rect>
</g>
<g>
	<rect x="3" y="36" style="fill:#967A44;" width="2" height="1"></rect>
</g>


</svg>
